{"glyphs":{":":{"x_min":0,"x_max":243,"ha":243,"o":"m 63 23 q 59 31 59 44 q 59 63 70 80 q 82 97 104 109 q 119 117 140 117 q 166 117 182 102 q 199 88 199 65 q 199 59 198 56 q 192 18 154 -1 q 147 -5 137 -7 q 127 -9 119 -9 q 78 -9 63 23 z m 136 435 q 131 447 131 456 q 131 475 142 493 q 154 511 174 520 q 195 529 212 529 q 241 529 258 511 q 275 493 271 468 q 265 430 226 411 q 210 403 191 403 q 151 403 136 435 z"},"$":{"x_min":0,"x_max":507,"ha":507,"o":"m 70 146 l 104 155 l 106 147 l 107 141 l 112 127 q 131 77 162 52 q 194 26 233 26 q 243 26 248 27 l 301 331 q 268 339 240 355 q 143 413 143 515 q 143 553 158 589 q 174 625 207 657 q 234 683 270 698 q 305 714 354 720 l 370 721 l 382 791 l 425 790 l 413 721 q 436 721 460 712 q 519 689 543 634 l 548 619 l 505 604 q 494 662 429 686 l 407 691 l 362 435 q 423 418 462 371 q 511 314 511 238 q 511 151 445 77 q 391 16 304 -1 l 294 -2 l 285 -4 l 269 -96 l 226 -96 l 242 -6 l 206 -3 q 121 15 85 91 q 70 123 70 146 z m 369 81 q 411 131 411 190 q 411 228 392 261 q 374 294 341 313 l 292 33 q 338 45 369 81 z m 287 466 q 305 456 322 452 l 364 690 q 317 684 284 651 q 234 602 234 552 q 234 499 287 466 z"},"?":{"x_min":0,"x_max":427,"ha":427,"o":"m 134 592 l 136 598 l 140 606 q 163 665 220 700 q 268 728 331 728 q 410 728 452 690 q 493 651 493 584 l 490 553 q 481 508 449 471 q 417 434 349 397 q 335 390 313 380 q 291 369 273 363 l 269 353 l 268 349 l 264 335 l 238 259 l 232 241 l 224 216 l 219 198 l 213 177 l 197 177 q 198 190 198 204 q 199 217 199 224 l 198 232 l 195 263 l 195 274 q 195 358 210 386 q 224 415 284 448 l 302 458 l 334 477 q 402 519 402 594 q 402 617 397 635 q 389 664 365 682 q 341 700 309 700 q 289 700 268 692 q 247 685 226 670 q 184 641 170 592 z m 117 23 q 113 31 113 44 q 113 63 124 80 q 136 97 158 109 q 173 117 194 117 q 220 117 236 102 q 253 88 253 65 q 253 59 252 56 q 246 18 208 -1 q 201 -5 191 -7 q 181 -9 173 -9 q 132 -9 117 23 z"},"a":{"x_min":0,"x_max":420,"ha":420,"o":"m -7 0 l 237 486 q 243 498 250 508 q 257 517 265 525 q 282 539 300 539 q 332 539 342 513 l 349 486 l 427 0 l 337 0 l 319 122 l 92 122 l 30 0 z m 278 400 l 260 433 l 230 399 l 107 154 l 311 154 z"},"L":{"x_min":0,"x_max":430,"ha":430,"o":"m 73 0 l 200 720 l 301 720 l 179 32 l 444 32 l 438 0 z"},"3":{"x_min":0,"x_max":605,"ha":605,"o":"m 144 0 l 425 313 q 433 321 440 330 q 446 339 455 356 q 464 374 464 391 q 464 430 428 438 l 399 440 l 222 440 l 480 691 l 225 691 l 230 720 l 612 720 l 354 465 l 456 465 q 467 465 475 464 q 477 464 497 460 q 555 447 555 390 q 555 357 532 321 l 513 296 l 251 0 z"},";":{"x_min":0,"x_max":234,"ha":234,"o":"m 138 435 q 134 443 134 456 q 134 498 179 521 q 197 529 215 529 q 241 529 258 514 q 274 500 274 477 q 274 471 273 468 q 267 430 228 411 q 212 403 193 403 q 153 403 138 435 z m -18 -186 l -6 -159 l 10 -124 l 33 -73 q 88 42 112 80 q 137 118 158 118 q 165 118 177 113 q 200 101 200 74 q 200 65 198 61 q 193 46 170 18 q 148 -9 55 -111 l 33 -134 l 5 -163 z"},"J":{"x_min":0,"x_max":331,"ha":331,"o":"m -7 0 l -1 32 l 88 32 q 127 32 151 63 q 175 94 188 170 l 285 720 l 386 720 l 289 170 q 275 88 234 49 q 193 10 115 2 l 84 0 z"},"V":{"x_min":0,"x_max":434,"ha":434,"o":"m 112 720 l 215 720 l 288 202 l 542 720 l 575 720 l 214 -12 z"},"7":{"x_min":0,"x_max":606,"ha":606,"o":"m 105 0 l 557 689 l 168 689 l 173 720 l 679 720 l 208 0 z"},"S":{"x_min":0,"x_max":499,"ha":499,"o":"m 62 146 l 96 155 l 98 147 l 99 141 l 103 127 q 141 23 235 23 q 256 23 285 31 q 328 43 358 76 q 387 110 397 157 q 399 165 400 176 q 401 188 401 197 q 401 281 304 325 q 256 347 216 370 q 176 394 156 431 q 135 468 135 513 q 135 551 150 588 q 166 624 198 656 q 268 724 375 724 q 494 724 535 634 l 540 619 l 500 604 q 486 651 442 676 q 411 693 377 693 q 320 693 272 649 q 224 605 224 552 q 224 498 271 471 q 296 457 330 445 q 365 433 409 408 q 453 382 478 337 q 503 292 503 238 q 503 195 488 155 q 472 115 438 77 q 391 25 323 5 q 280 -8 239 -8 q 180 -8 140 18 q 99 43 77 91 q 62 123 62 146 z"},"Z":{"x_min":0,"x_max":594,"ha":594,"o":"m 22 0 l 559 688 l 168 688 l 174 720 l 692 720 l 163 32 l 571 32 l 565 0 z"},"x":{"x_min":0,"x_max":452,"ha":452,"o":"m 8 0 l 230 233 l 91 518 l 186 518 l 298 300 l 506 518 l 542 518 l 309 273 l 452 0 l 349 0 l 245 210 l 44 0 z"},")":{"x_min":0,"x_max":271,"ha":271,"o":"m -19 -147 l 14 -104 q 71 -25 109 60 q 147 145 170 249 q 184 307 191 370 q 198 433 198 487 q 198 580 173 668 q 167 692 159 713 q 151 734 140 758 l 226 758 l 240 726 q 271 649 284 571 q 289 543 292 510 q 295 477 295 445 q 295 346 267 237 q 221 56 91 -116 l 67 -147 z"},"&":{"x_min":0,"x_max":641,"ha":641,"o":"m 293 405 l 288 419 q 280 441 269 458 l 262 474 q 240 529 240 563 q 240 616 293 669 q 320 696 353 710 q 386 724 421 724 q 433 724 439 723 q 488 717 517 688 q 546 659 546 615 q 546 572 520 526 q 500 490 468 458 q 453 443 438 430 q 430 423 413 410 l 407 406 l 399 401 l 532 164 l 541 169 l 550 176 l 566 190 q 589 213 600 234 q 611 256 617 295 l 626 358 l 657 358 l 648 293 q 642 248 624 216 q 606 184 567 151 l 557 143 l 548 136 l 628 0 l 526 0 l 477 81 l 464 73 l 440 58 l 428 50 l 401 36 q 392 31 373 23 q 354 15 340 10 q 311 1 281 -4 q 251 -8 220 -8 q 154 -8 112 36 q 69 79 69 143 q 69 175 82 208 q 94 240 118 270 q 141 299 184 333 q 203 349 255 382 l 286 401 z m 487 601 q 488 606 488 617 q 488 639 481 654 q 466 694 427 694 q 405 694 385 680 q 330 642 330 578 q 330 546 345 511 l 373 447 q 394 462 398 465 q 408 473 421 486 q 487 551 487 601 z m 186 187 q 186 124 222 84 q 257 45 312 45 q 338 45 361 53 q 410 70 448 97 l 463 108 l 327 351 q 296 333 269 311 q 224 273 205 244 q 186 216 186 187 z"},"_":{"x_min":0,"x_max":576,"ha":576,"o":"m 0 0 l 6 36 l 582 36 l 576 0 z"},"v":{"x_min":0,"x_max":446,"ha":446,"o":"m 77 518 l 183 518 l 270 158 l 285 133 l 306 159 l 515 518 l 552 518 l 269 33 l 259 17 q 246 -4 230 -4 q 219 -4 210 8 l 204 33 z"},"O":{"x_min":0,"x_max":824,"ha":824,"o":"m 102 247 q 101 253 100 262 q 100 272 100 283 q 100 355 128 432 q 157 509 211 575 q 272 650 354 690 q 436 730 537 730 q 679 730 766 648 q 852 567 852 430 q 852 407 851 394 q 850 381 845 355 q 834 295 811 247 q 769 156 700 94 q 632 33 550 8 q 468 -17 395 -17 q 270 -17 193 54 q 116 125 102 247 z m 506 39 q 603 78 667 190 q 735 309 735 461 q 735 511 720 558 q 700 624 648 662 q 597 700 530 700 q 483 700 438 681 q 361 650 300 565 q 235 474 214 354 q 210 334 209 315 q 208 296 208 271 q 208 263 208 259 q 208 228 216 193 q 218 186 227 154 q 246 93 297 57 q 348 21 415 21 q 438 21 461 26 q 484 30 506 39 z"},"(":{"x_min":0,"x_max":271,"ha":271,"o":"m 312 758 l 398 758 l 365 714 q 308 636 270 550 q 232 464 208 362 q 202 334 197 305 q 192 276 189 249 q 180 181 180 124 q 180 31 205 -57 q 219 -104 238 -147 l 153 -147 q 110 -57 94 40 q 84 97 84 163 q 84 262 112 374 q 134 463 178 551 q 221 639 288 727 z"},"C":{"x_min":0,"x_max":710,"ha":710,"o":"m 784 627 l 759 602 l 742 617 q 719 635 695 648 q 671 661 648 669 q 624 677 598 681 q 571 685 543 685 q 426 685 342 604 q 253 518 227 364 q 223 344 221 318 q 219 293 219 272 q 219 157 276 95 q 333 33 434 33 q 466 33 508 41 q 588 57 651 99 l 671 113 l 691 90 q 640 46 563 19 q 486 -8 393 -8 q 261 -8 182 70 q 102 149 102 283 q 102 308 103 321 q 104 334 110 364 q 115 393 122 418 q 130 443 142 469 q 196 593 293 660 q 390 728 522 728 q 696 728 784 627 z"},"W":{"x_min":0,"x_max":748,"ha":748,"o":"m 112 720 l 215 720 l 303 196 l 443 473 l 410 720 l 513 720 l 584 186 l 856 720 l 889 720 l 513 -12 l 449 427 l 225 -12 z"},"A":{"x_min":0,"x_max":626,"ha":626,"o":"m -22 0 l 445 751 l 647 0 l 544 0 l 485 214 l 145 214 l 13 0 z m 382 593 l 165 245 l 473 245 z"},"f":{"x_min":0,"x_max":243,"ha":243,"o":"m 66 0 l 190 702 q 193 717 203 731 q 213 745 235 761 q 267 785 333 791 l 359 792 l 399 792 l 394 762 l 348 759 q 320 759 304 746 q 289 734 285 709 l 251 518 l 357 518 l 351 486 l 245 486 l 160 0 z"},"Q":{"x_min":0,"x_max":824,"ha":824,"o":"m 461 -13 l 427 -209 l 326 -209 l 360 -14 q 248 -14 174 68 q 101 151 101 278 q 101 313 110 364 q 119 414 144 468 q 203 594 304 662 q 405 730 537 730 q 679 730 766 648 q 852 567 852 430 q 852 407 851 394 q 850 381 845 355 q 834 295 811 247 q 760 137 668 69 q 577 1 461 -13 z m 720 559 q 700 624 648 662 q 597 700 530 700 q 483 700 438 681 q 362 651 301 567 q 237 478 217 364 q 208 311 208 267 q 208 168 250 107 q 291 46 367 24 l 398 200 l 499 200 l 468 26 q 589 65 660 176 q 735 293 735 461 q 735 511 720 559 z"},"w":{"x_min":0,"x_max":694,"ha":694,"o":"m 77 518 l 183 518 l 270 158 l 285 136 l 306 158 l 384 296 l 325 518 l 431 518 l 518 158 l 533 136 l 554 159 l 769 518 l 800 518 l 517 33 q 508 17 502 9 q 495 1 490 -2 q 487 -4 484 -4 q 480 -4 479 -4 q 462 -4 457 12 l 452 32 l 397 248 l 269 32 l 259 16 q 246 -4 231 -4 q 219 -4 210 8 l 204 33 z"},"-":{"x_min":0,"x_max":298,"ha":298,"o":"m 81 251 l 96 338 l 322 338 l 307 251 z"},"E":{"x_min":0,"x_max":455,"ha":455,"o":"m 73 0 l 200 720 l 547 720 l 541 688 l 295 688 l 242 389 l 467 389 l 461 358 l 237 358 l 179 32 l 425 32 l 420 0 z"},"s":{"x_min":0,"x_max":439,"ha":439,"o":"m 49 0 l 56 38 l 246 38 l 267 40 q 320 51 339 95 q 351 124 351 145 q 351 206 250 228 l 213 236 l 201 239 l 183 244 q 98 273 98 346 q 98 378 116 422 q 135 466 176 492 q 217 518 271 518 l 461 518 l 455 484 l 286 484 q 233 484 203 442 q 196 434 191 420 q 182 397 182 381 q 182 335 263 316 l 287 310 l 317 304 q 434 275 434 180 q 434 148 421 112 q 396 38 308 10 q 293 6 274 3 q 254 0 235 0 z"},"l":{"x_min":0,"x_max":270,"ha":270,"o":"m 82 89 l 206 792 l 299 792 l 175 90 q 174 85 174 77 q 174 39 217 33 l 230 32 l 283 32 l 277 0 l 146 0 l 129 2 q 80 14 80 67 q 80 73 82 89 z"},"8":{"x_min":0,"x_max":607,"ha":607,"o":"m 291 411 l 278 416 q 207 446 207 522 q 207 538 208 546 q 210 555 217 578 l 227 604 q 276 707 393 722 q 416 725 435 725 q 508 725 547 685 q 586 645 586 577 q 586 522 555 480 q 524 438 470 417 l 455 411 q 492 402 528 366 q 577 319 577 250 q 577 213 564 173 q 540 95 483 46 q 426 -4 349 -15 q 337 -17 322 -18 q 307 -19 294 -19 q 202 -19 152 28 q 101 74 101 156 q 101 177 106 207 q 123 307 205 366 q 244 395 273 405 l 281 408 z m 411 435 q 446 450 470 494 q 494 538 494 602 q 494 624 490 640 q 474 696 421 696 q 406 696 391 690 q 363 678 337 642 q 311 607 300 558 q 299 553 298 538 q 297 522 297 521 q 297 500 304 478 q 310 455 329 441 q 348 427 374 427 q 392 427 411 435 z m 356 24 q 404 45 436 108 q 469 172 469 258 q 469 311 442 350 q 414 390 367 390 q 322 390 283 349 q 244 308 226 258 q 205 202 205 146 q 205 118 214 86 q 222 54 248 34 q 274 14 308 14 q 333 14 356 24 z"},"e":{"x_min":0,"x_max":417,"ha":417,"o":"m 80 79 l 143 439 l 147 454 q 165 508 219 517 l 236 518 l 480 518 l 474 486 l 301 486 l 290 485 q 244 479 236 438 l 210 287 l 406 287 l 401 256 l 204 256 l 174 83 q 172 71 172 66 q 172 40 214 32 l 222 32 l 394 32 l 389 0 l 143 0 q 78 0 78 57 q 78 63 80 79 z"},"b":{"x_min":0,"x_max":612,"ha":612,"o":"m 66 0 l 206 792 l 299 792 l 251 518 l 379 518 q 434 518 485 503 q 549 483 588 428 q 628 372 628 301 q 628 242 598 182 q 554 97 473 48 q 392 0 288 0 z m 501 191 q 528 258 528 318 q 528 395 488 440 q 447 486 384 486 l 245 486 l 165 32 l 299 32 q 362 32 416 73 q 471 114 501 191 z"},"%":{"x_min":0,"x_max":876,"ha":876,"o":"m 300 0 l 660 720 l 701 720 l 341 0 z m 138 474 q 135 489 135 505 q 135 554 161 606 q 183 649 220 678 q 273 719 328 727 q 335 727 344 728 q 352 729 357 729 q 425 729 468 686 q 511 643 511 575 q 511 557 508 539 q 498 483 462 438 q 427 393 374 370 q 330 351 289 351 q 280 351 264 353 q 156 372 138 474 z m 491 113 q 488 128 488 145 q 488 177 500 212 q 523 277 573 316 q 599 336 626 348 q 654 361 672 364 q 690 366 698 366 q 705 367 710 367 q 778 367 821 324 q 864 281 864 214 q 864 196 861 178 q 837 57 727 8 q 683 -10 644 -10 q 626 -10 617 -8 q 509 9 491 113 z m 279 372 q 289 370 294 370 q 315 370 345 384 q 383 403 413 450 q 427 474 436 503 q 449 548 449 588 q 449 627 436 656 q 424 684 402 698 q 379 713 355 713 q 330 713 297 696 q 264 678 234 628 q 218 604 211 578 q 204 553 200 532 q 197 511 197 491 q 197 478 198 473 l 202 449 q 221 381 279 372 z m 632 10 q 637 9 646 9 q 671 9 698 23 q 736 41 765 88 q 780 112 789 142 q 802 187 802 226 q 802 265 790 294 q 777 322 754 337 q 731 352 708 352 q 685 352 654 335 q 636 325 620 310 q 603 294 587 268 q 571 241 564 216 q 550 170 550 129 q 550 116 551 111 l 555 87 q 574 19 632 10 z"},"m":{"x_min":0,"x_max":720,"ha":720,"o":"m 66 0 l 149 468 q 158 526 212 526 q 268 532 281 484 l 380 135 l 611 484 l 624 501 q 655 532 689 532 q 712 532 726 517 q 740 502 740 480 q 740 472 739 468 l 657 0 l 563 0 l 628 368 l 634 399 q 634 402 633 405 q 631 409 630 410 q 621 421 611 414 q 603 409 598 403 l 579 376 l 322 -15 l 207 368 l 200 396 l 194 406 q 190 410 186 410 q 183 410 177 406 q 171 401 168 392 q 166 384 164 377 l 162 364 l 98 0 z"},",":{"x_min":0,"x_max":209,"ha":209,"o":"m -40 -186 l -28 -159 l -12 -124 l 11 -73 q 66 42 90 80 q 115 118 136 118 q 143 118 155 113 q 178 101 178 74 q 178 65 176 61 q 171 46 148 18 q 126 -9 33 -111 l 11 -134 l -17 -163 z"},"n":{"x_min":0,"x_max":507,"ha":507,"o":"m 66 0 l 146 453 q 151 480 168 503 q 186 526 210 526 q 232 526 247 508 q 259 494 270 474 l 422 190 l 438 173 l 447 193 l 505 518 l 535 518 l 451 38 q 450 30 447 23 q 444 16 438 8 q 433 0 423 0 q 413 0 406 10 l 404 12 l 394 30 l 204 389 l 183 412 l 165 380 l 98 0 z"},"h":{"x_min":0,"x_max":593,"ha":593,"o":"m 66 0 l 206 792 l 299 792 l 215 311 l 491 311 l 527 518 l 621 518 l 530 0 l 436 0 l 485 280 l 209 280 l 160 0 z"},"z":{"x_min":0,"x_max":430,"ha":430,"o":"m 73 79 l 342 428 l 348 437 q 356 453 356 462 q 356 478 337 483 l 311 486 l 115 486 l 120 518 l 405 518 q 436 518 452 514 q 467 511 467 485 q 467 473 458 459 l 431 422 l 164 79 q 159 73 153 59 q 150 50 156 42 q 163 33 175 32 l 193 32 l 404 32 l 398 0 l 72 0 q 63 0 53 5 q 43 10 43 22 q 43 24 45 32 l 59 57 z"},"B":{"x_min":0,"x_max":651,"ha":651,"o":"m 73 0 l 200 720 l 469 720 q 514 720 550 712 q 586 703 616 685 q 647 667 665 634 q 683 602 683 564 q 683 537 674 510 q 665 482 645 456 q 625 429 596 412 q 567 394 522 383 l 497 379 l 518 374 q 574 360 607 321 q 640 282 640 231 q 640 178 605 127 q 564 66 494 33 q 425 0 330 0 z m 504 146 q 525 182 525 223 q 525 266 501 299 q 477 332 438 344 q 400 355 362 355 l 236 355 l 179 32 l 297 32 q 366 32 420 62 q 473 91 504 146 z m 557 493 q 577 530 577 563 q 577 603 552 634 q 526 666 481 678 q 450 688 412 688 l 295 688 l 242 386 l 367 386 q 430 386 479 414 q 528 442 557 493 z"},"K":{"x_min":0,"x_max":527,"ha":527,"o":"m 73 0 l 200 720 l 301 720 l 247 416 l 604 720 l 650 720 l 339 456 l 543 0 l 425 0 l 265 387 l 239 368 l 174 0 z"},"R":{"x_min":0,"x_max":568,"ha":568,"o":"m 73 0 l 200 720 l 433 720 q 473 720 514 709 q 570 694 604 652 q 637 611 637 559 q 637 523 619 485 q 594 432 545 398 q 496 364 417 348 l 387 344 l 537 0 l 418 0 l 264 383 l 363 383 q 487 383 532 491 q 546 525 546 559 q 546 602 524 634 q 502 666 466 677 q 430 688 401 688 l 295 688 l 174 0 z"},"T":{"x_min":0,"x_max":346,"ha":346,"o":"m 114 688 l 120 720 l 480 720 l 474 688 l 345 688 l 224 0 l 123 0 l 245 688 z"},"P":{"x_min":0,"x_max":516,"ha":516,"o":"m 73 0 l 200 720 l 429 720 q 447 720 467 717 q 487 714 506 709 q 553 695 581 657 q 609 619 609 569 q 609 529 588 487 q 557 427 500 394 q 443 360 366 360 l 237 360 l 174 0 z m 498 495 q 506 514 510 535 q 514 556 514 572 q 514 626 484 657 q 454 688 405 688 l 295 688 l 243 390 l 353 390 q 399 390 438 418 q 477 445 498 495 z"},"t":{"x_min":0,"x_max":344,"ha":344,"o":"m 78 486 l 84 518 l 443 518 l 437 486 l 306 486 l 220 0 l 126 0 l 212 486 z"},"M":{"x_min":0,"x_max":832,"ha":832,"o":"m 73 0 l 200 720 l 295 720 l 454 166 l 800 720 l 888 720 l 761 0 l 660 0 l 769 615 l 396 -14 l 213 615 l 105 0 z"},"g":{"x_min":0,"x_max":613,"ha":613,"o":"m 584 444 l 565 429 q 545 460 505 480 q 465 499 414 499 q 398 499 378 496 q 305 486 252 424 q 196 358 176 246 q 170 208 170 177 q 170 16 324 16 q 344 16 367 19 q 413 27 448 50 l 456 55 l 464 61 l 496 245 l 590 245 l 510 -209 l 416 -209 l 456 20 q 439 9 411 0 q 383 -8 350 -12 q 318 -15 295 -15 q 189 -15 133 42 q 77 99 77 202 q 77 250 92 298 q 108 346 140 392 q 220 505 360 523 q 386 526 410 526 q 477 526 522 503 q 567 480 584 444 z"},"j":{"x_min":0,"x_max":230,"ha":230,"o":"m -106 -209 l -100 -177 l -40 -177 q -5 -177 20 -148 q 44 -119 60 -51 l 63 -34 l 161 518 l 254 518 l 157 -34 q 141 -125 92 -167 q 43 -209 -45 -209 z m 173 600 q 169 607 169 618 q 169 655 208 674 q 222 681 239 681 q 264 681 279 665 q 294 649 290 627 q 283 594 251 579 q 237 572 221 572 q 186 572 173 600 z"},"i":{"x_min":0,"x_max":230,"ha":230,"o":"m 67 0 l 158 518 l 252 518 l 161 0 z m 168 600 q 164 607 164 618 q 164 655 203 674 q 217 681 234 681 q 260 681 274 665 q 288 649 285 627 q 278 594 246 579 q 232 572 216 572 q 181 572 168 600 z"},"y":{"x_min":0,"x_max":506,"ha":506,"o":"m 77 518 l 177 518 l 317 117 l 581 518 l 612 518 l 133 -209 l 103 -209 l 250 17 z"},".":{"x_min":0,"x_max":215,"ha":215,"o":"m 48 23 q 44 31 44 44 q 44 63 56 80 q 67 97 89 109 q 104 117 125 117 q 151 117 168 102 q 184 88 184 65 q 184 59 183 56 q 177 18 139 -1 q 132 -5 122 -7 q 112 -9 104 -9 q 63 -9 48 23 z"},"p":{"x_min":0,"x_max":611,"ha":611,"o":"m 29 -209 l 157 518 l 379 518 q 432 518 485 503 q 551 483 589 428 q 627 374 627 302 q 627 272 620 242 q 612 211 597 182 q 553 97 472 48 q 391 0 288 0 l 159 0 l 123 -209 z m 520 256 q 525 288 525 298 q 525 308 525 314 q 525 396 485 441 q 445 486 378 486 l 245 486 l 165 32 l 304 32 q 378 32 438 90 q 502 152 520 256 z"},"X":{"x_min":0,"x_max":612,"ha":612,"o":"m 0 0 l 324 340 l 141 720 l 244 720 l 396 417 l 691 720 l 734 720 l 413 382 l 612 0 l 499 0 l 342 311 l 44 0 z"},"*":{"x_min":0,"x_max":324,"ha":324,"o":"m 131 509 q 152 539 183 557 q 214 575 251 579 l 243 582 l 218 593 l 202 601 q 173 619 164 627 q 155 635 151 644 q 148 654 154 662 q 159 669 170 669 q 183 669 196 658 q 214 640 229 627 l 238 618 l 261 593 l 259 628 q 259 682 264 698 q 268 714 291 731 q 305 709 305 691 q 305 670 287 628 l 272 593 l 303 618 q 336 644 354 654 q 371 663 388 663 q 398 663 404 662 q 392 636 375 623 q 358 610 314 594 l 278 581 l 311 569 q 352 554 364 542 q 377 529 377 504 q 370 502 358 502 q 342 502 328 510 q 314 519 290 544 l 268 568 l 271 534 q 271 490 269 472 q 267 453 242 435 q 223 454 223 474 q 223 493 241 534 l 256 568 q 207 509 131 509 z"},"Y":{"x_min":0,"x_max":499,"ha":499,"o":"m 112 720 l 227 720 l 355 399 l 602 720 l 640 720 l 361 362 l 298 0 l 197 0 l 261 365 z"},"c":{"x_min":0,"x_max":531,"ha":531,"o":"m 575 444 l 556 425 q 536 457 498 476 q 459 495 410 495 q 402 495 393 494 q 384 493 379 493 q 304 482 252 421 q 196 355 178 248 q 172 212 172 182 q 172 16 326 16 q 340 16 354 16 q 367 19 373 20 q 432 29 484 66 l 494 74 l 510 58 q 451 7 359 -10 q 344 -13 322 -14 q 299 -15 297 -15 q 197 -15 136 44 q 76 104 76 200 q 76 215 76 230 q 79 245 80 251 q 100 367 173 438 q 246 509 358 523 q 381 526 402 526 q 463 526 507 504 q 551 483 575 444 z"},"!":{"x_min":0,"x_max":240,"ha":240,"o":"m 63 23 q 59 31 59 44 q 59 63 70 80 q 82 97 104 109 q 119 117 140 117 q 166 117 182 102 q 199 88 199 65 q 199 59 198 56 q 192 18 154 -1 q 147 -5 137 -7 q 127 -9 119 -9 q 78 -9 63 23 z m 145 172 l 151 232 l 155 269 l 172 485 l 175 523 l 181 589 l 185 623 q 192 670 194 680 q 200 706 216 720 q 226 730 243 730 q 263 730 274 716 q 285 701 285 684 q 285 661 268 589 l 255 538 l 243 486 l 229 433 l 186 270 l 181 250 l 162 172 z"},"/":{"x_min":0,"x_max":359,"ha":359,"o":"m 29 0 l 413 720 l 458 720 l 74 0 z"},"6":{"x_min":0,"x_max":606,"ha":606,"o":"m 164 396 l 401 720 l 504 720 l 272 394 l 279 399 l 287 405 q 306 418 324 424 q 342 429 371 429 q 396 429 418 427 q 440 425 462 418 q 525 400 562 350 q 600 300 600 238 q 600 213 594 189 q 588 165 574 140 q 534 68 459 26 q 384 -15 287 -15 q 194 -15 139 35 q 84 85 84 172 q 84 201 89 228 q 94 256 107 290 q 129 348 164 396 z m 360 30 q 386 39 408 56 q 430 74 451 103 q 467 124 478 150 q 489 177 495 206 q 497 216 498 229 q 499 242 499 253 q 499 291 488 317 q 474 354 442 376 q 409 397 369 397 q 314 397 270 357 q 241 330 222 292 q 202 253 194 205 q 193 192 192 182 q 192 173 192 165 q 192 156 192 152 q 194 135 196 122 q 199 108 204 94 q 214 60 242 40 q 271 20 309 20 q 334 20 360 30 z"},"r":{"x_min":0,"x_max":498,"ha":498,"o":"m 66 0 l 157 518 l 387 518 q 411 518 421 516 q 431 515 448 510 q 487 498 510 467 q 533 436 533 396 q 533 370 524 345 q 514 320 496 297 q 477 274 454 260 q 432 247 396 238 l 348 229 l 477 0 l 367 0 l 228 262 l 304 262 l 323 262 q 343 262 361 268 q 397 279 420 308 q 437 329 444 350 q 451 370 451 392 q 451 422 435 446 q 419 470 392 478 q 366 486 346 486 l 245 486 l 160 0 z"},"2":{"x_min":0,"x_max":609,"ha":609,"o":"m 74 0 l 359 313 l 368 323 l 385 343 l 406 366 l 424 387 q 477 449 500 493 q 523 537 523 573 q 523 631 500 656 q 478 681 415 687 q 409 688 397 688 q 291 688 228 571 l 220 555 l 184 555 l 188 564 l 191 573 q 223 645 284 684 q 344 724 423 724 q 432 724 441 724 q 453 722 459 722 q 530 714 570 678 q 609 641 609 585 q 609 539 582 485 q 560 442 539 411 q 518 380 471 324 l 452 302 l 448 298 l 428 276 l 214 41 l 516 41 l 509 0 z"},"9":{"x_min":0,"x_max":612,"ha":612,"o":"m 534 309 l 279 0 l 166 0 l 445 322 l 404 304 q 365 290 318 290 q 235 290 186 336 q 138 381 138 458 q 138 500 154 547 q 178 618 244 669 q 304 713 387 725 q 397 726 406 726 q 416 727 428 727 q 449 727 467 724 q 513 717 545 702 q 577 688 599 663 q 645 611 645 546 q 645 496 618 430 q 610 411 602 398 q 594 385 582 369 l 569 352 l 556 336 l 544 320 z m 414 342 q 463 362 497 424 q 531 487 531 570 q 531 596 521 626 q 511 657 483 678 q 455 699 420 699 q 395 699 372 689 q 331 672 298 624 q 265 577 254 512 q 251 492 251 474 q 251 465 251 461 q 254 432 264 402 q 274 372 302 352 q 330 332 365 332 q 391 332 414 342 z"}," ":{"x_min":0,"x_max":290,"ha":290,"o":""},"I":{"x_min":0,"x_max":245,"ha":245,"o":"m 73 0 l 200 720 l 301 720 l 174 0 z"},"H":{"x_min":0,"x_max":640,"ha":640,"o":"m 73 0 l 200 720 l 301 720 l 244 396 l 538 396 l 595 720 l 696 720 l 569 0 l 468 0 l 532 365 l 238 365 l 174 0 z"},"4":{"x_min":0,"x_max":605,"ha":605,"o":"m 37 240 l 474 720 l 578 720 l 501 280 l 564 280 l 557 240 l 494 240 l 451 0 l 349 0 l 391 240 z m 465 658 l 118 280 l 398 280 z"},"D":{"x_min":0,"x_max":699,"ha":699,"o":"m 73 0 l 200 720 l 476 720 q 588 720 657 647 q 726 574 726 446 q 726 403 716 352 q 706 300 686 253 q 636 132 546 66 q 455 0 346 0 z m 608 352 q 619 411 619 468 q 619 576 576 632 q 534 688 467 688 l 295 688 l 179 32 l 351 32 q 434 32 503 110 q 581 198 608 352 z"},"0":{"x_min":0,"x_max":605,"ha":605,"o":"m 82 225 q 81 237 80 246 q 80 256 80 263 q 80 350 114 443 q 134 496 162 542 q 201 605 238 641 q 274 677 320 701 q 376 729 433 729 q 496 729 546 694 q 596 659 619 597 q 629 571 635 546 q 641 520 641 493 q 641 321 580 193 q 520 65 420 18 q 389 4 358 -4 q 326 -11 295 -11 q 228 -11 178 22 q 127 56 107 113 q 96 142 89 171 q 82 200 82 225 z m 372 45 q 402 61 427 94 q 452 126 484 188 q 515 251 531 347 q 544 426 544 483 q 544 524 538 556 q 531 587 516 619 q 502 651 476 670 q 449 688 418 688 q 391 688 364 672 q 336 655 312 625 q 288 595 258 534 q 239 498 225 454 q 211 410 200 354 q 195 321 192 303 q 190 285 190 261 q 190 153 214 99 q 229 67 256 48 q 284 30 317 30 q 345 30 372 45 z"},"F":{"x_min":0,"x_max":426,"ha":426,"o":"m 73 0 l 200 720 l 547 720 l 541 688 l 295 688 l 242 389 l 467 389 l 461 358 l 237 358 l 174 0 z"},"`":{"x_min":0,"x_max":266,"ha":266,"o":"m 132 713 l 265 713 l 306 571 l 228 571 z"},"k":{"x_min":0,"x_max":501,"ha":501,"o":"m 66 0 l 206 792 l 299 792 l 216 321 l 471 518 l 512 518 l 305 356 l 516 0 l 410 0 l 230 298 l 209 281 l 160 3 z"},"u":{"x_min":0,"x_max":501,"ha":501,"o":"m 99 185 l 158 518 l 251 518 l 192 185 q 190 175 189 162 q 188 149 188 137 q 188 90 216 62 q 244 34 289 34 q 307 34 328 40 q 368 52 398 90 q 428 128 438 188 l 496 518 l 528 518 l 470 189 q 455 106 405 54 q 355 3 283 -6 q 271 -7 262 -8 q 254 -8 250 -8 q 179 -8 137 32 q 95 72 95 141 q 95 151 95 159 q 95 167 99 185 z"},"U":{"x_min":0,"x_max":565,"ha":565,"o":"m 105 179 l 200 720 l 301 720 l 206 179 q 203 164 203 148 q 203 139 206 114 q 208 90 240 62 q 272 34 321 34 q 340 34 363 40 q 398 50 425 71 q 480 115 492 182 l 587 720 l 618 720 l 523 183 q 510 107 454 56 q 398 4 315 -5 q 303 -6 294 -6 q 285 -7 280 -7 q 198 -7 150 37 q 102 81 102 149 q 102 164 105 179 z"},"o":{"x_min":0,"x_max":634,"ha":634,"o":"m 79 178 q 77 187 77 196 q 77 206 77 212 q 77 264 98 318 q 118 372 158 418 q 204 472 270 502 q 335 533 412 533 q 520 533 585 472 q 650 411 650 311 q 650 288 645 258 q 637 215 620 178 q 555 41 420 2 q 360 -16 307 -16 q 212 -16 152 36 q 91 89 79 178 z m 389 27 q 459 55 508 140 q 556 225 556 336 q 556 352 553 370 q 550 389 545 407 q 530 456 492 484 q 455 511 406 511 q 375 511 339 497 q 282 474 239 413 q 192 347 177 257 q 172 229 172 205 q 173 194 173 188 q 173 171 176 152 q 180 133 186 111 q 200 66 236 40 q 273 13 322 13 q 353 13 389 27 z"},"N":{"x_min":0,"x_max":654,"ha":654,"o":"m 73 0 l 200 720 l 252 720 l 585 189 l 678 720 l 710 720 l 581 -14 l 209 597 l 104 0 z"},"G":{"x_min":0,"x_max":736,"ha":736,"o":"m 783 631 l 759 612 q 721 639 674 657 l 645 667 q 595 681 549 681 q 428 681 337 596 q 246 512 219 360 q 211 314 211 277 q 211 163 271 98 q 331 33 429 33 q 510 33 565 62 l 573 66 l 582 72 l 624 309 l 423 309 l 429 339 l 730 339 l 685 86 l 677 81 l 670 76 l 630 53 q 574 23 516 8 q 459 -8 397 -8 q 265 -8 182 72 q 100 151 100 284 q 100 324 108 370 q 117 415 140 466 q 195 586 298 654 q 402 723 524 723 q 549 723 575 720 q 676 708 745 662 z"},"q":{"x_min":0,"x_max":612,"ha":612,"o":"m 417 518 l 639 518 l 511 -209 l 417 -209 l 454 0 l 326 0 q 269 0 220 16 q 155 36 116 91 q 77 146 77 216 q 77 276 107 336 q 152 423 232 470 q 312 518 417 518 z m 321 32 l 459 32 l 540 486 l 406 486 q 343 486 288 444 q 234 402 206 330 q 177 259 177 199 q 177 123 218 78 q 258 32 321 32 z"},"d":{"x_min":0,"x_max":611,"ha":611,"o":"m 417 518 l 545 518 l 594 792 l 687 792 l 547 0 l 326 0 q 269 0 220 16 q 155 36 116 91 q 77 146 77 216 q 77 276 107 336 q 151 422 232 470 q 312 518 417 518 z m 326 32 l 459 32 l 540 486 l 401 486 q 328 486 267 427 q 202 364 185 261 q 182 248 181 233 q 180 218 180 202 q 180 122 220 77 q 260 32 326 32 z"},"1":{"x_min":0,"x_max":606,"ha":606,"o":"m 248 0 l 366 669 l 276 653 l 278 689 l 478 720 l 351 0 z"},"5":{"x_min":0,"x_max":605,"ha":605,"o":"m 133 0 l 414 313 q 431 332 438 342 q 445 352 446 362 q 448 372 448 387 q 448 440 388 440 l 214 440 l 263 720 l 587 720 l 582 689 l 361 689 l 321 465 l 445 465 l 463 464 q 543 450 543 394 q 543 370 530 341 l 520 321 l 502 296 l 240 0 z"}}}
